<svg xmlns="http://www.w3.org/2000/svg" viewBox="0 0 907.09 328.75" class="svg replaced-svg"><defs><style>.animate-svg path{-webkit-animation:draw ease-in-out forwards;animation:draw ease-in-out forwards;stroke:#000}.animate-svg{-webkit-animation:fillopacity 3 ease-in-out forwards;animation:fillopacity 3s ease-in-out forwards}@-webkit-keyframes draw{100%{stroke-dashoffset:0}}@keyframes draw{100%{stroke-dashoffset:0}}@-webkit-keyframes fillopacity{0%,70%{fill-opacity:0;stroke-width:0.5%}100%{fill-opacity:1;stroke-width:0}}@keyframes fillopacity{0%,70%{fill-opacity:0;stroke-width:0.5%}100%{fill-opacity:1;stroke-width:0}}</style></defs>
  <title>tesla</title>
  <g id="Layer_1-2" data-name="Layer 1">
      <path class="path" fill="none" stroke="#000" stroke-width="2" d="M84,328.75c-43.54-24.44-49.75-72.86-49.75-117.29V132.39H0v-48H34.21V17.77l64.86-8V84.41h48.42l-5.77,48H99.07V212.8c0,35.54,6.66,61.75,28.43,85.74Z" style="stroke-dasharray: 901.867; stroke-dashoffset: 901.867; animation-delay: 0s; animation-duration: 1.67167s;"></path>
      <path class="path" fill="none" stroke="#000" stroke-width="2" d="M268,271.88c-27.1,0-40.43-11.1-44.43-39.53l139.5-14.66c0-114.62-37.76-138.62-100.85-138.62-64,0-105.73,28.89-105.73,123.51,0,91.52,40.87,121.73,112.4,121.73,34.21,0,62.19-8.45,87.52-25.77l-19.55-44.87C314.18,267,292.41,271.88,268,271.88Zm-47.09-87.07c0-36.87,14.21-53.75,41.31-53.75,24,0,36.88,13.32,37.76,48l-79.07,12.45Z" style="stroke-dasharray: 1233.2; stroke-dashoffset: 1233.2; animation-delay: 0.2s; animation-duration: 2.16757s;"></path>
      <path class="path" fill="none" stroke="#000" stroke-width="2" d="M471.54,274.1c18.66,0,31.54-4.88,31.54-19.54,0-15.11-17.32-20-39.54-26.66-35.09-10.21-77.3-23.1-77.3-76.41,0-44.87,36.43-72.42,85.74-72.42,31.1,0,58.65,3.56,85.31,19.56l-17.78,45.75c-19.1-8.88-38.2-13.32-61.31-13.32-16.43,0-29.76,4.88-29.76,19.54s16.44,19.55,41.31,26.66c36.44,10.22,76.42,23.55,76.42,73.75,0,49.75-34.21,73.3-88.41,73.3-40.43,0-71.08-7.11-96.4-22.22l16.88-46.2C422.67,267.44,448.44,274.1,471.54,274.1Z" style="stroke-dasharray: 1104.75; stroke-dashoffset: 1104.75; animation-delay: 0.4s; animation-duration: 1.97177s;"></path>
      <path class="path" fill="none" stroke="#000" stroke-width="2" d="M604.46,319c-8.44-21.77-9.78-50.2-9.78-80.41V7.55L659.55,0V243c0,24,.44,55.09,5.77,76Z" style="stroke-dasharray: 758.04; stroke-dashoffset: 758.04; animation-delay: 0.6s; animation-duration: 1.47s;"></path>
      <path class="path" fill="none" stroke="#000" stroke-width="2" d="M900.87,229.24V171.48c0-56-37.33-92.41-99.08-92.41-35.09,0-66.64,6.22-94.63,22.22l19.55,47.53c20.44-10.21,42.65-16,64.87-16,25.77,0,42.65,8.44,44.42,42.21-113.28,6.66-140.83,31.09-140.83,76.86,0,44,23.11,72.41,82.19,72.41,35.1,0,55.09-13.33,68-35.1a243,243,0,0,0,11.11,34.66l50.65-12.45C901.31,284.77,900.87,256.34,900.87,229.24ZM836,243c-8.88,19.1-20,31.09-42.2,31.09-25.33,0-33.77-7.1-33.77-24.43,0-19.1,20-28.88,76-32Z" style="stroke-dasharray: 1274.71; stroke-dashoffset: 1274.71; animation-delay: 0.8s; animation-duration: 2.23153s;"></path>
    </g>
</svg>